PathFileType	4	(X/Y/Z)	 s08c0302.trc
DataRate	CameraRate	NumFrames	NumMarkers	Units	OrigDataRate	OrigDataStartFrame	OrigNumFrames
200	200	6	50	mm	200	1751	2000
Frame#	Time	racr			lacr			c7			jug			rlel			rdr			llel			ldr			s2			lic			ric			lasi			rasi			rpsi			lpsi			rgt			lgt			rth1			rth2			rth3			rth4			rlfc			rmfc			rsh1			rsh2			rsh3			rsh4			rlmal			rmmal			rcal			rtoe			rmt5			lth1			lth2			lth4			lth3			llfc			lmfc			llmal			lmmal			lcal			lmt5			lsh1			lsh2			lsh3			lsh4			ltoe			SBIKE			LBIKE			RBIKE			
		X1	Y1	Z1	X2	Y2	Z2	X3	Y3	Z3	X4	Y4	Z4	X5	Y5	Z5	X6	Y6	Z6	X7	Y7	Z7	X8	Y8	Z8	X9	Y9	Z9	X10	Y10	Z10	X11	Y11	Z11	X12	Y12	Z12	X13	Y13	Z13	X14	Y14	Z14	X15	Y15	Z15	X16	Y16	Z16	X17	Y17	Z17	X18	Y18	Z18	X19	Y19	Z19	X20	Y20	Z20	X21	Y21	Z21	X22	Y22	Z22	X23	Y23	Z23	X24	Y24	Z24	X25	Y25	Z25	X26	Y26	Z26	X27	Y27	Z27	X28	Y28	Z28	X29	Y29	Z29	X30	Y30	Z30	X31	Y31	Z31	X32	Y32	Z32	X33	Y33	Z33	X34	Y34	Z34	X35	Y35	Z35	X36	Y36	Z36	X37	Y37	Z37	X38	Y38	Z38	X39	Y39	Z39	X40	Y40	Z40	X41	Y41	Z41	X42	Y42	Z42	X43	Y43	Z43	X44	Y44	Z44	X45	Y45	Z45	X46	Y46	Z46	X47	Y47	Z47	X48	Y48	Z48	X49	Y49	Z49	X50	Y50	Z50	
1751	8.7550	560.534879	1372.753424	-51.748668	560.408421	1371.691593	-374.311599	530.385919	1431.404676	-209.492813	497.503207	1270.460844	-205.299096	612.362498	1120.230004	45.878040	792.352599	884.560273	-39.114754	614.915572	1114.770038	-464.325575	801.266792	893.049496	-398.145819	-36.112163	1201.820128	-206.434073	143.070402	1200.108808	-368.597633	134.020769	1194.599433	-45.983380	150.210259	1145.991917	-319.901020	156.203638	1140.012496	-79.871211	2.471304	1239.818788	-153.959713	-0.759540	1247.415900	-247.722951	45.459444	1080.923670	-19.104584	67.938490	1099.706441	-401.047659	154.945254	940.743441	-16.615275	224.752174	885.924630	-21.770596	257.441216	806.004647	-36.478793	253.982968	908.256767	-27.462316	327.966628	714.387627	-54.670818	306.051621	698.031675	-162.423418	299.137773	584.728974	-21.680453	325.432411	500.285805	-37.813321	305.640274	416.056415	-43.193023	352.929509	504.974355	-67.397578	301.426377	295.870000	-48.746482	314.057148	319.774557	-137.879706	225.778803	263.373323	-96.979173	525.619206	265.448124	-97.553267	437.056764	230.004781	-31.152144	168.537213	1016.711052	-415.098542	252.255898	991.105030	-419.240718	272.266927	1020.002851	-407.626351	312.042530	925.784576	-428.039116	393.519954	825.147233	-412.309317	402.605939	802.832450	-311.182984	99.724366	543.322514	-394.167744	134.966204	543.515369	-309.947320	34.366470	563.499247	-354.009412	163.926619	392.796698	-413.368879	315.097582	729.127278	-431.957021	268.727666	662.731291	-412.003094	190.564404	618.451724	-408.177602	285.639044	649.294100	-376.541598	245.804189	366.801322	-342.833223	-144.097288	937.090965	-220.236811	16.516049	83.345470	-424.257309	9.652686	80.136044	-26.466762	
1752	8.7600	560.485526	1372.863139	-52.610372	560.464023	1371.684494	-375.188376	530.670269	1432.038821	-210.703765	497.471552	1271.465415	-206.097812	612.052153	1120.350880	44.628366	792.835060	884.310741	-39.266228	615.051170	1114.906205	-465.194227	801.312490	893.212125	-397.946988	-36.119394	1202.270201	-205.119341	142.214448	1201.017409	-368.110510	134.969968	1194.518105	-45.368134	149.904178	1146.960918	-319.258644	156.890269	1138.333690	-78.779018	2.876104	1239.875936	-152.500920	-0.846823	1247.827611	-246.343008	44.779289	1080.272435	-18.623961	68.160233	1102.030936	-400.724885	150.991017	937.944637	-15.977588	219.311006	881.241024	-21.252118	250.238720	800.730828	-36.409160	249.308999	903.031411	-26.903295	318.985375	707.972722	-54.186341	298.710833	690.757544	-160.034429	291.234966	578.138282	-20.941458	318.427878	494.104759	-37.169743	299.445219	409.532622	-42.748985	346.326915	498.993734	-66.973138	296.718877	289.237152	-48.545725	309.989469	312.850341	-137.605172	221.403991	258.190384	-97.030340	521.160053	255.352000	-97.418068	432.019677	221.039962	-31.217516	169.603617	1021.172755	-414.556476	253.819297	997.270318	-418.662294	273.244649	1026.417840	-406.558642	314.956200	933.245407	-427.929372	398.341136	833.394830	-412.019649	404.868069	809.743301	-307.625108	104.220755	551.765929	-394.014294	137.807214	552.176605	-310.378199	38.068422	571.334916	-353.723002	169.339874	401.887620	-413.289002	320.033864	737.141817	-431.697333	273.450448	670.883114	-411.678246	194.915868	626.873321	-408.045178	290.255370	657.510034	-376.061685	251.181338	377.136719	-343.530971	-144.071301	937.111544	-220.047476	16.515631	83.403044	-424.254329	9.606928	80.215287	-26.472281	
1753	8.7650	560.474695	1372.973858	-53.813730	560.555245	1371.741082	-376.111318	530.864207	1432.624741	-211.770310	497.347111	1272.439985	-207.012757	612.766808	1120.926544	43.471951	794.033460	884.899900	-39.067350	615.197837	1115.072384	-466.349772	801.871339	893.655798	-398.718905	-36.035936	1202.557443	-203.978743	141.949723	1201.835084	-368.098561	135.930183	1194.272180	-45.117912	149.752513	1147.920455	-318.720243	157.037527	1137.001168	-77.903116	2.920959	1239.841410	-151.497751	-0.861916	1248.266354	-245.005475	44.131840	1079.608312	-18.420421	68.464097	1104.334271	-400.432353	147.177872	935.345129	-15.215540	214.213110	876.847295	-20.509695	243.031866	795.864490	-35.284966	244.595863	898.112716	-26.403071	310.069239	701.800030	-53.698700	289.031426	684.645463	-159.428199	283.286846	571.990872	-20.145423	311.213864	488.251052	-36.587328	293.121144	403.504897	-42.358886	339.130404	493.527420	-66.274330	291.716805	283.046485	-48.401364	305.414522	306.765920	-137.148700	216.743714	253.386344	-97.081780	516.400412	245.135999	-97.468129	426.617839	212.380768	-31.251599	162.859084	1027.634134	-420.095740	255.358585	1003.439191	-417.983210	273.791817	1032.282839	-404.200465	317.752811	940.645288	-427.763849	402.560057	841.851705	-411.760921	408.126350	817.199740	-304.825857	109.048043	559.797020	-393.848299	142.406069	560.527730	-310.227273	42.218591	578.775585	-353.651306	175.339919	410.748818	-413.185109	325.167778	745.109157	-431.501393	278.323238	679.101606	-411.380741	199.993627	635.074930	-407.571834	295.099115	665.689593	-375.725448	257.553907	386.036286	-342.077146	-144.039070	937.135844	-219.970286	16.532583	83.412725	-424.241533	9.521581	79.989179	-26.847800	
1754	8.7700	560.596643	1373.062500	-54.821038	560.621721	1371.870386	-376.977649	531.051726	1433.309959	-212.947183	497.448662	1273.470198	-207.712694	613.599578	1121.421086	42.285116	793.770936	884.096798	-39.194456	615.347861	1115.261896	-467.532339	802.105143	893.863907	-398.822784	-35.952583	1202.863668	-202.948065	141.445623	1202.697211	-367.759964	136.887565	1194.113354	-44.838437	149.654099	1148.803796	-318.093198	157.495247	1135.833426	-76.848014	3.397904	1239.844911	-150.264542	-0.931582	1248.463934	-243.722201	43.448886	1079.083185	-18.162328	68.850423	1106.589598	-400.128166	143.442115	932.889648	-14.418345	209.282917	872.912607	-19.015958	235.794674	791.302446	-34.464091	239.710926	893.512728	-25.981266	301.235413	696.094289	-53.261085	279.495065	678.702443	-158.900232	275.388918	566.248114	-19.434874	304.008156	482.822927	-35.965006	286.632429	397.924814	-41.895737	331.850521	488.372058	-65.638331	286.539469	277.336921	-48.228904	300.301473	301.131404	-136.850697	211.765295	249.276417	-97.083708	511.124066	235.012513	-97.547781	420.720470	204.023127	-31.297225	170.807744	1030.710699	-414.885160	256.991370	1009.786107	-417.629192	274.709257	1038.577954	-403.014543	320.374057	948.121982	-427.538508	407.136354	850.171924	-411.396541	412.664050	825.331527	-303.206570	114.180552	567.383938	-393.721259	147.483769	568.497547	-310.107898	46.576834	585.642867	-353.543822	181.730747	419.123158	-413.224204	330.255675	753.084116	-431.030286	283.409340	687.167624	-411.069877	205.016702	643.036185	-407.214474	300.104414	673.713641	-375.307468	264.126464	395.760186	-341.794578	-144.016855	937.158528	-219.895940	16.525894	83.432302	-424.225426	9.683229	80.226694	-26.282783	
1755	8.7750	560.056037	1372.180151	-57.946388	560.739753	1372.071642	-377.863037	531.137103	1433.863678	-213.943002	497.474173	1274.402623	-208.945872	614.703054	1122.034892	41.035953	794.374844	883.815792	-39.237847	615.453043	1115.458634	-469.084197	802.362018	894.112556	-398.885698	-35.796477	1203.231936	-201.950903	141.218016	1203.392322	-367.616817	137.865165	1193.951357	-44.509083	149.613922	1149.757369	-317.487872	157.893991	1134.477715	-75.831700	3.904590	1239.841694	-149.126675	-0.878120	1248.832141	-242.615495	42.874251	1078.714845	-18.039220	69.448439	1108.966191	-399.867022	139.742852	930.533950	-13.578094	204.140229	869.167596	-18.204175	228.911443	786.923105	-33.437219	235.114747	888.969220	-25.459606	292.514991	690.670700	-52.797935	270.095471	673.131943	-158.396410	267.375138	561.005151	-18.894399	296.661287	477.857974	-35.380869	280.092457	392.783013	-41.437726	324.526048	483.609105	-65.023566	281.086648	272.140127	-47.983879	295.248579	295.767042	-136.469275	206.380531	245.662343	-97.193337	505.412405	225.198278	-97.490633	414.363864	196.032199	-31.331824	171.957807	1035.208870	-414.059014	258.692629	1016.250823	-417.930015	275.677989	1044.786556	-401.771104	322.894754	955.277830	-426.931184	411.236939	858.690170	-411.440745	417.493702	833.182412	-304.220277	119.732951	574.458894	-393.617263	152.842623	575.921854	-310.060528	51.232323	591.989983	-353.576745	188.597832	427.229711	-413.152357	335.350447	761.066251	-430.449415	288.628876	695.117655	-410.733915	210.258659	650.831432	-406.764844	305.303557	681.558891	-375.037916	271.419860	404.899210	-342.051166	-143.974470	937.182987	-219.819546	16.539592	83.493289	-424.264507	9.677281	80.325087	-26.280166	
1756	8.7800	560.231808	1372.186584	-59.024995	560.760832	1372.317930	-378.614410	531.150597	1434.520133	-214.861976	497.640004	1275.367044	-209.980534	617.012755	1123.031547	40.068894	795.044423	883.549867	-39.186333	615.705963	1115.720288	-470.410325	802.674436	894.376746	-398.949532	-36.151266	1203.577759	-200.761467	140.917858	1204.043825	-367.483764	138.835651	1193.692849	-44.228172	149.451657	1150.463632	-316.510763	158.296874	1132.869394	-74.931918	4.389025	1239.834279	-148.143172	-0.850612	1249.209043	-241.541429	42.500693	1078.319961	-17.859433	70.147209	1111.486812	-399.702181	136.240622	928.233698	-13.169653	199.425416	865.659400	-17.479632	221.981850	782.546661	-32.431491	230.923439	884.560716	-24.064006	283.983133	685.568013	-52.665988	260.925647	668.054765	-158.004800	259.428544	556.103698	-18.200646	289.300775	473.213817	-34.838237	273.400670	388.143307	-40.984941	317.089041	479.234932	-64.498633	275.420698	267.354704	-47.929610	289.708521	291.087989	-136.108960	200.809609	242.539704	-97.150549	499.436448	215.650692	-97.537274	407.686525	188.524355	-31.372009	173.135679	1039.707376	-412.855532	260.163721	1022.278565	-416.914471	276.680934	1050.934635	-400.531502	325.393642	962.481953	-426.519467	415.205753	866.934519	-410.934993	421.899795	841.258731	-302.889228	125.552938	580.949165	-393.552967	159.689488	583.024709	-308.985621	56.098192	597.760360	-353.569441	195.975453	434.913785	-413.025630	340.372259	768.947451	-429.875909	293.824267	702.710647	-410.134964	215.703499	658.326204	-406.229964	310.729310	689.127671	-374.601286	278.691255	413.572800	-342.014317	-143.896881	937.215705	-219.737372	16.566624	83.503767	-424.244333	9.673300	80.216148	-26.339852	
